<mxfile host="app.diagrams.net" modified="2024-02-07T07:15:15.522Z" agent="Mozilla/5.0 (X11; Linux x86_64) AppleWebKit/537.36 (KHTML, like Gecko) Chrome/121.0.0.0 Safari/537.36" etag="Y2HQ3lUmdpAAfAj4fcJS" version="23.1.1" type="github">
  <diagram id="wFE0QG_FPsp0jaGvCLVb" name="Page-1">
    <mxGraphModel dx="1890" dy="1058" grid="0" gridSize="10" guides="1" tooltips="1" connect="1" arrows="1" fold="1" page="1" pageScale="1" pageWidth="850" pageHeight="1100" math="0" shadow="1">
      <root>
        <mxCell id="0" />
        <mxCell id="1" parent="0" />
        <mxCell id="_5mSTuPxr-ZiKRkBDSY7-1" value="" style="swimlane;fontStyle=2;childLayout=stackLayout;horizontal=1;startSize=28;horizontalStack=1;resizeParent=1;resizeParentMax=0;resizeLast=0;collapsible=0;marginBottom=0;swimlaneFillColor=none;fontFamily=Permanent Marker;fontSize=16;points=[];verticalAlign=top;stackBorder=0;resizable=1;strokeWidth=2;sketch=1;disableMultiStroke=1;gradientColor=none;fillColor=default;glass=0;" parent="1" vertex="1">
          <mxGeometry x="159" y="112" width="1440" height="767" as="geometry" />
        </mxCell>
        <object label="1º SEMESTRE" status="New" id="_5mSTuPxr-ZiKRkBDSY7-2">
          <mxCell style="swimlane;strokeWidth=2;fontFamily=Permanent Marker;html=0;startSize=1;verticalAlign=bottom;spacingBottom=5;points=[];childLayout=stackLayout;stackBorder=20;stackSpacing=20;resizeLast=0;resizeParent=1;horizontalStack=0;collapsible=0;sketch=1;strokeColor=none;fillStyle=solid;fillColor=none;gradientColor=default;" parent="_5mSTuPxr-ZiKRkBDSY7-1" vertex="1">
            <mxGeometry y="28" width="180" height="739" as="geometry" />
          </mxCell>
        </object>
        <object label="&lt;font style=&quot;&quot; face=&quot;Helvetica&quot;&gt;&lt;br&gt;&lt;div style=&quot;text-align: left;&quot;&gt;&amp;nbsp;APF22&lt;/div&gt;&lt;div style=&quot;text-align: left;&quot;&gt;&lt;br&gt;&lt;/div&gt;Fundamentos da Física I&lt;br&gt;&lt;div style=&quot;font-size: 12px; text-align: left;&quot;&gt;&amp;nbsp;60h&lt;span style=&quot;background-color: initial; white-space: pre;&quot;&gt;&#x9;&lt;/span&gt;&lt;span style=&quot;background-color: initial; white-space: pre;&quot;&gt;&#x9;&lt;/span&gt;&lt;/div&gt;&lt;div style=&quot;font-size: 12px; text-align: left;&quot;&gt;&lt;br&gt;&lt;/div&gt;&lt;/font&gt;" placeholders="1" id="_5mSTuPxr-ZiKRkBDSY7-3">
          <mxCell style="whiteSpace=wrap;html=1;strokeWidth=2;fillColor=#dae8fc;fontStyle=1;spacingTop=0;rounded=1;arcSize=9;points=[];fontFamily=Permanent Marker;hachureGap=8;fillWeight=1;strokeColor=default;glass=1;shadow=1;" parent="_5mSTuPxr-ZiKRkBDSY7-2" vertex="1">
            <mxGeometry x="20" y="21" width="140" height="80" as="geometry" />
          </mxCell>
        </object>
        <object label="&lt;div style=&quot;text-align: left;&quot;&gt;&lt;span style=&quot;background-color: initial;&quot;&gt;&lt;font face=&quot;Helvetica&quot;&gt;&lt;br&gt;&lt;/font&gt;&lt;/span&gt;&lt;/div&gt;&lt;div style=&quot;text-align: left;&quot;&gt;&lt;span style=&quot;background-color: initial;&quot;&gt;&lt;font face=&quot;Helvetica&quot;&gt;&amp;nbsp;APF23&lt;/font&gt;&lt;/span&gt;&lt;/div&gt;&lt;div style=&quot;border-color: var(--border-color); text-align: left;&quot;&gt;&lt;font face=&quot;Helvetica&quot;&gt;&lt;br style=&quot;border-color: var(--border-color);&quot;&gt;&lt;/font&gt;&lt;/div&gt;&lt;div style=&quot;text-align: center; border-color: var(--border-color);&quot;&gt;&lt;font face=&quot;Helvetica&quot;&gt;Geometria Analitica e Vetores&lt;/font&gt;&lt;/div&gt;&lt;div style=&quot;text-align: left; border-color: var(--border-color);&quot;&gt;&lt;span style=&quot;font-family: Helvetica; background-color: initial;&quot;&gt;&amp;nbsp;60h&lt;/span&gt;&lt;span style=&quot;font-family: Helvetica; background-color: initial; white-space: pre;&quot;&gt;&amp;nbsp;&amp;nbsp;&amp;nbsp;&amp;nbsp;&lt;/span&gt;&lt;span style=&quot;font-family: Helvetica; background-color: initial; border-color: var(--border-color);&quot;&gt;&lt;span style=&quot;white-space: pre;&quot;&gt;&amp;nbsp;&amp;nbsp;&amp;nbsp;&amp;nbsp;&lt;/span&gt;&lt;/span&gt;&lt;/div&gt;&lt;div style=&quot;border-color: var(--border-color); text-align: left;&quot;&gt;&lt;br style=&quot;border-color: var(--border-color); font-family: Helvetica;&quot;&gt;&lt;/div&gt;" placeholders="1" id="zUUzP4G1sy1ztIb5Q9ei-7">
          <mxCell style="whiteSpace=wrap;html=1;strokeWidth=2;fillColor=#dae8fc;fontStyle=1;spacingTop=0;rounded=1;arcSize=9;points=[];fontFamily=Permanent Marker;hachureGap=8;fillWeight=1;strokeColor=default;glass=1;shadow=1;" vertex="1" parent="_5mSTuPxr-ZiKRkBDSY7-2">
            <mxGeometry x="20" y="121" width="140" height="80" as="geometry" />
          </mxCell>
        </object>
        <object label="&lt;div style=&quot;text-align: left;&quot;&gt;&lt;span style=&quot;background-color: initial;&quot;&gt;&lt;font face=&quot;Helvetica&quot;&gt;&lt;br&gt;&lt;/font&gt;&lt;/span&gt;&lt;/div&gt;&lt;div style=&quot;text-align: left;&quot;&gt;&lt;span style=&quot;background-color: initial;&quot;&gt;&lt;font face=&quot;Helvetica&quot;&gt;&amp;nbsp;FIG17&lt;/font&gt;&lt;/span&gt;&lt;/div&gt;&lt;div style=&quot;border-color: var(--border-color); text-align: left;&quot;&gt;&lt;font face=&quot;Helvetica&quot;&gt;&lt;br style=&quot;border-color: var(--border-color);&quot;&gt;&lt;/font&gt;&lt;/div&gt;&lt;div style=&quot;text-align: center; border-color: var(--border-color);&quot;&gt;&lt;font face=&quot;Helvetica&quot;&gt;Fundamentos da Matemática&lt;/font&gt;&lt;/div&gt;&lt;div style=&quot;text-align: left; border-color: var(--border-color);&quot;&gt;&lt;span style=&quot;font-family: Helvetica; background-color: initial;&quot;&gt;&amp;nbsp;60h&lt;/span&gt;&lt;span style=&quot;font-family: Helvetica; background-color: initial; white-space: pre;&quot;&gt;&amp;nbsp;&amp;nbsp;&amp;nbsp;&amp;nbsp;&lt;/span&gt;&lt;span style=&quot;font-family: Helvetica; background-color: initial; border-color: var(--border-color);&quot;&gt;&lt;span style=&quot;white-space: pre;&quot;&gt;&amp;nbsp;&amp;nbsp;&amp;nbsp;&amp;nbsp;&lt;/span&gt;&lt;/span&gt;&lt;/div&gt;&lt;div style=&quot;border-color: var(--border-color); text-align: left;&quot;&gt;&lt;br style=&quot;border-color: var(--border-color); font-family: Helvetica;&quot;&gt;&lt;/div&gt;" placeholders="1" id="zUUzP4G1sy1ztIb5Q9ei-20">
          <mxCell style="whiteSpace=wrap;html=1;strokeWidth=2;fillColor=#dae8fc;fontStyle=1;spacingTop=0;rounded=1;arcSize=9;points=[];fontFamily=Permanent Marker;hachureGap=8;fillWeight=1;strokeColor=default;glass=1;shadow=1;" vertex="1" parent="_5mSTuPxr-ZiKRkBDSY7-2">
            <mxGeometry x="20" y="221" width="140" height="80" as="geometry" />
          </mxCell>
        </object>
        <object label="&lt;div style=&quot;text-align: left;&quot;&gt;&lt;span style=&quot;background-color: initial;&quot;&gt;&lt;font face=&quot;Helvetica&quot;&gt;&lt;br&gt;&lt;/font&gt;&lt;/span&gt;&lt;/div&gt;&lt;div style=&quot;text-align: left;&quot;&gt;&lt;span style=&quot;background-color: initial;&quot;&gt;&lt;font face=&quot;Helvetica&quot;&gt;&amp;nbsp;FEG10&lt;/font&gt;&lt;/span&gt;&lt;/div&gt;&lt;div style=&quot;text-align: center; border-color: var(--border-color);&quot;&gt;&lt;font face=&quot;Helvetica&quot;&gt;Fundamentos Filósoficos da Educação&lt;/font&gt;&lt;/div&gt;&lt;div style=&quot;text-align: left; border-color: var(--border-color);&quot;&gt;&lt;span style=&quot;font-family: Helvetica; background-color: initial;&quot;&gt;&amp;nbsp;30h&lt;/span&gt;&lt;span style=&quot;font-family: Helvetica; background-color: initial; white-space: pre;&quot;&gt;&amp;nbsp;&amp;nbsp;&amp;nbsp;&amp;nbsp;&lt;/span&gt;&lt;span style=&quot;font-family: Helvetica; background-color: initial; border-color: var(--border-color);&quot;&gt;&lt;span style=&quot;white-space: pre;&quot;&gt;&amp;nbsp;&amp;nbsp;&amp;nbsp;&amp;nbsp;&lt;/span&gt;&lt;/span&gt;&lt;/div&gt;&lt;div style=&quot;border-color: var(--border-color); text-align: left;&quot;&gt;&lt;br style=&quot;border-color: var(--border-color); font-family: Helvetica;&quot;&gt;&lt;/div&gt;" placeholders="1" id="zUUzP4G1sy1ztIb5Q9ei-21">
          <mxCell style="whiteSpace=wrap;html=1;strokeWidth=2;fillColor=#dae8fc;fontStyle=1;spacingTop=0;rounded=1;arcSize=9;points=[];fontFamily=Permanent Marker;hachureGap=8;fillWeight=1;strokeColor=default;glass=1;shadow=1;" vertex="1" parent="_5mSTuPxr-ZiKRkBDSY7-2">
            <mxGeometry x="20" y="321" width="140" height="80" as="geometry" />
          </mxCell>
        </object>
        <object label="&lt;div style=&quot;text-align: left;&quot;&gt;&lt;span style=&quot;background-color: initial;&quot;&gt;&lt;font face=&quot;Helvetica&quot;&gt;&lt;br&gt;&lt;/font&gt;&lt;/span&gt;&lt;/div&gt;&lt;div style=&quot;text-align: left;&quot;&gt;&lt;span style=&quot;background-color: initial;&quot;&gt;&lt;font face=&quot;Helvetica&quot;&gt;&amp;nbsp;FEG11&lt;/font&gt;&lt;/span&gt;&lt;/div&gt;&lt;div style=&quot;text-align: center; border-color: var(--border-color);&quot;&gt;&lt;font face=&quot;Helvetica&quot;&gt;Fundamentos Sociologicos da Educação&lt;/font&gt;&lt;/div&gt;&lt;div style=&quot;text-align: left; border-color: var(--border-color);&quot;&gt;&lt;span style=&quot;font-family: Helvetica; background-color: initial;&quot;&gt;&amp;nbsp;30h&lt;/span&gt;&lt;span style=&quot;font-family: Helvetica; background-color: initial; white-space: pre;&quot;&gt;&amp;nbsp;&amp;nbsp;&amp;nbsp;&amp;nbsp;&lt;/span&gt;&lt;span style=&quot;font-family: Helvetica; background-color: initial; border-color: var(--border-color);&quot;&gt;&lt;span style=&quot;white-space: pre;&quot;&gt;&amp;nbsp;&amp;nbsp;&amp;nbsp;&amp;nbsp;&lt;/span&gt;&lt;/span&gt;&lt;/div&gt;&lt;div style=&quot;border-color: var(--border-color); text-align: left;&quot;&gt;&lt;br style=&quot;border-color: var(--border-color); font-family: Helvetica;&quot;&gt;&lt;/div&gt;" placeholders="1" id="zUUzP4G1sy1ztIb5Q9ei-23">
          <mxCell style="whiteSpace=wrap;html=1;strokeWidth=2;fillColor=#dae8fc;fontStyle=1;spacingTop=0;rounded=1;arcSize=9;points=[];fontFamily=Permanent Marker;hachureGap=8;fillWeight=1;strokeColor=default;glass=1;shadow=1;" vertex="1" parent="_5mSTuPxr-ZiKRkBDSY7-2">
            <mxGeometry x="20" y="421" width="140" height="80" as="geometry" />
          </mxCell>
        </object>
        <object label="&lt;div style=&quot;text-align: left;&quot;&gt;&lt;span style=&quot;background-color: initial;&quot;&gt;&lt;font face=&quot;Helvetica&quot;&gt;&lt;br&gt;&lt;/font&gt;&lt;/span&gt;&lt;/div&gt;&lt;div style=&quot;text-align: left;&quot;&gt;&lt;span style=&quot;background-color: initial;&quot;&gt;&lt;font face=&quot;Helvetica&quot;&gt;&amp;nbsp;FEG06&lt;/font&gt;&lt;/span&gt;&lt;/div&gt;&lt;div style=&quot;text-align: center; border-color: var(--border-color);&quot;&gt;&lt;font face=&quot;Helvetica&quot;&gt;Estrutura e Funcionamento da Educação Básica&lt;/font&gt;&lt;/div&gt;&lt;div style=&quot;text-align: left; border-color: var(--border-color);&quot;&gt;&lt;span style=&quot;font-family: Helvetica; background-color: initial;&quot;&gt;&amp;nbsp;30h&lt;/span&gt;&lt;span style=&quot;font-family: Helvetica; background-color: initial; white-space: pre;&quot;&gt;&amp;nbsp;&amp;nbsp;&amp;nbsp;&amp;nbsp;&lt;/span&gt;&lt;span style=&quot;font-family: Helvetica; background-color: initial; border-color: var(--border-color);&quot;&gt;&lt;span style=&quot;white-space: pre;&quot;&gt;&amp;nbsp;&amp;nbsp;&amp;nbsp;&amp;nbsp;&lt;/span&gt;&lt;/span&gt;&lt;/div&gt;&lt;div style=&quot;border-color: var(--border-color); text-align: left;&quot;&gt;&lt;br style=&quot;border-color: var(--border-color); font-family: Helvetica;&quot;&gt;&lt;/div&gt;" placeholders="1" id="zUUzP4G1sy1ztIb5Q9ei-24">
          <mxCell style="whiteSpace=wrap;html=1;strokeWidth=2;fillColor=#dae8fc;fontStyle=1;spacingTop=0;rounded=1;arcSize=9;points=[];fontFamily=Permanent Marker;hachureGap=8;fillWeight=1;strokeColor=default;glass=1;shadow=1;" vertex="1" parent="_5mSTuPxr-ZiKRkBDSY7-2">
            <mxGeometry x="20" y="521" width="140" height="80" as="geometry" />
          </mxCell>
        </object>
        <object label="&lt;div style=&quot;text-align: left;&quot;&gt;&lt;span style=&quot;font-family: Helvetica; background-color: initial;&quot;&gt;&lt;br&gt;&lt;/span&gt;&lt;/div&gt;&lt;div style=&quot;text-align: left;&quot;&gt;&lt;span style=&quot;font-family: Helvetica; background-color: initial;&quot;&gt;&amp;nbsp;FMG01&lt;/span&gt;&lt;br&gt;&lt;/div&gt;&lt;div style=&quot;text-align: left;&quot;&gt;&lt;span style=&quot;background-color: initial;&quot;&gt;&lt;font face=&quot;Helvetica&quot;&gt;&lt;br&gt;&lt;/font&gt;&lt;/span&gt;&lt;/div&gt;&lt;div style=&quot;text-align: center; border-color: var(--border-color);&quot;&gt;&lt;font face=&quot;Helvetica&quot;&gt;Análise e Produção&amp;nbsp; &amp;nbsp; &amp;nbsp;&lt;/font&gt;&lt;span style=&quot;background-color: initial; font-family: Helvetica;&quot;&gt;de Textos&lt;/span&gt;&lt;/div&gt;&lt;div style=&quot;text-align: left; border-color: var(--border-color);&quot;&gt;&lt;span style=&quot;background-color: initial; font-family: Helvetica;&quot;&gt;&amp;nbsp;30h&lt;/span&gt;&lt;span style=&quot;text-align: left; background-color: initial; font-family: Helvetica; white-space: pre;&quot;&gt;&amp;nbsp;&amp;nbsp;&amp;nbsp;&amp;nbsp;&lt;/span&gt;&lt;span style=&quot;text-align: left; background-color: initial; font-family: Helvetica; border-color: var(--border-color);&quot;&gt;&lt;span style=&quot;white-space: pre;&quot;&gt;&amp;nbsp;&amp;nbsp;&amp;nbsp;&amp;nbsp;&lt;/span&gt;&lt;/span&gt;&lt;/div&gt;&lt;div style=&quot;border-color: var(--border-color); text-align: left;&quot;&gt;&lt;br style=&quot;border-color: var(--border-color); font-family: Helvetica;&quot;&gt;&lt;/div&gt;" placeholders="1" id="zUUzP4G1sy1ztIb5Q9ei-25">
          <mxCell style="whiteSpace=wrap;html=1;strokeWidth=2;fillColor=#dae8fc;fontStyle=1;spacingTop=0;rounded=1;arcSize=9;points=[];fontFamily=Permanent Marker;hachureGap=8;fillWeight=1;strokeColor=default;glass=1;shadow=1;" vertex="1" parent="_5mSTuPxr-ZiKRkBDSY7-2">
            <mxGeometry x="20" y="621" width="140" height="80" as="geometry" />
          </mxCell>
        </object>
        <object label="2º SEMESTRE" status="New" id="UxCQeE6TKcD0Ho9k0yVD-1">
          <mxCell style="swimlane;strokeWidth=2;fontFamily=Permanent Marker;html=0;startSize=1;verticalAlign=bottom;spacingBottom=5;points=[];childLayout=stackLayout;stackBorder=20;stackSpacing=20;resizeLast=0;resizeParent=1;horizontalStack=0;collapsible=0;strokeColor=none;fillStyle=solid;fillColor=none;swimlaneLine=0;shadow=0;rounded=0;" parent="_5mSTuPxr-ZiKRkBDSY7-1" vertex="1">
            <mxGeometry x="180" y="28" width="180" height="739" as="geometry" />
          </mxCell>
        </object>
        <object label="&lt;font style=&quot;font-size: 12px;&quot; face=&quot;Helvetica&quot;&gt;&lt;br&gt;&lt;div style=&quot;text-align: left;&quot;&gt;&amp;nbsp;APF24&lt;/div&gt;&lt;div style=&quot;text-align: left;&quot;&gt;&lt;br&gt;&lt;/div&gt;Fundamentos da Física II&lt;br&gt;&lt;div style=&quot;text-align: left; line-height: 120%;&quot;&gt;&amp;nbsp;60h&lt;span style=&quot;background-color: initial; white-space: pre;&quot;&gt;&#x9;&lt;/span&gt;&lt;span style=&quot;background-color: initial; white-space: pre;&quot;&gt;&#x9;&lt;span style=&quot;white-space: pre;font-size:5px&quot;&gt;&#x9;&lt;/span&gt;     &lt;span style=&quot;white-space: pre;&quot;&gt;&#x9;&lt;/span&gt;     APF22&lt;/span&gt;&lt;/div&gt;&lt;div style=&quot;text-align: left;&quot;&gt;&lt;br&gt;&lt;/div&gt;&lt;/font&gt;" placeholders="1" id="zUUzP4G1sy1ztIb5Q9ei-16">
          <mxCell style="whiteSpace=wrap;html=1;strokeWidth=2;fillColor=#95D3FC;fontStyle=1;spacingTop=0;rounded=1;arcSize=9;points=[];fontFamily=Permanent Marker;hachureGap=8;fillWeight=1;strokeColor=default;glass=1;shadow=1;" vertex="1" parent="UxCQeE6TKcD0Ho9k0yVD-1">
            <mxGeometry x="20" y="21" width="140" height="80" as="geometry" />
          </mxCell>
        </object>
        <object label="&lt;font style=&quot;font-size: 12px;&quot; face=&quot;Helvetica&quot;&gt;&lt;br&gt;&lt;div style=&quot;text-align: left;&quot;&gt;&amp;nbsp;APF25&lt;/div&gt;&lt;div style=&quot;text-align: left;&quot;&gt;&lt;br&gt;&lt;/div&gt;Algebra Linear&lt;br&gt;&lt;br&gt;&lt;div style=&quot;text-align: left; line-height: 120%;&quot;&gt;&amp;nbsp;60h&lt;span style=&quot;background-color: initial; white-space: pre;&quot;&gt;&#x9;&lt;/span&gt;&lt;span style=&quot;background-color: initial; white-space: pre;&quot;&gt;&#x9;&lt;span style=&quot;white-space: pre;font-size:5px&quot;&gt;&#x9;&lt;/span&gt;     &lt;span style=&quot;white-space: pre;&quot;&gt;&#x9;&lt;/span&gt;     APF2&lt;/span&gt;3&lt;/div&gt;&lt;div style=&quot;text-align: left;&quot;&gt;&lt;br&gt;&lt;/div&gt;&lt;/font&gt;" placeholders="1" id="zUUzP4G1sy1ztIb5Q9ei-19">
          <mxCell style="whiteSpace=wrap;html=1;strokeWidth=2;fillColor=#95D3FC;fontStyle=1;spacingTop=0;rounded=1;arcSize=9;points=[];fontFamily=Permanent Marker;hachureGap=8;fillWeight=1;strokeColor=default;glass=1;shadow=1;" vertex="1" parent="UxCQeE6TKcD0Ho9k0yVD-1">
            <mxGeometry x="20" y="121" width="140" height="80" as="geometry" />
          </mxCell>
        </object>
        <object label="&lt;font style=&quot;font-size: 12px;&quot; face=&quot;Helvetica&quot;&gt;&lt;br&gt;&lt;div style=&quot;text-align: left;&quot;&gt;&amp;nbsp;FIG18&lt;/div&gt;&lt;div style=&quot;text-align: left;&quot;&gt;&lt;br&gt;&lt;/div&gt;Calculo Diferencial e&amp;nbsp;&lt;br&gt;Integral&amp;nbsp;I&lt;br&gt;&lt;div style=&quot;text-align: left; line-height: 120%;&quot;&gt;&amp;nbsp;60h&lt;span style=&quot;background-color: initial; white-space: pre;&quot;&gt;&#x9;&lt;/span&gt;&lt;span style=&quot;background-color: initial; white-space: pre;&quot;&gt;&#x9;&lt;span style=&quot;white-space: pre;font-size:5px&quot;&gt;&#x9;&lt;/span&gt;     &lt;span style=&quot;white-space: pre;&quot;&gt;&#x9;&lt;/span&gt;     &lt;/span&gt;FIG18&lt;/div&gt;&lt;div style=&quot;text-align: left;&quot;&gt;&lt;br&gt;&lt;/div&gt;&lt;/font&gt;" placeholders="1" id="zUUzP4G1sy1ztIb5Q9ei-38">
          <mxCell style="whiteSpace=wrap;html=1;strokeWidth=2;fillColor=#95D3FC;fontStyle=1;spacingTop=0;rounded=1;arcSize=9;points=[];fontFamily=Permanent Marker;hachureGap=8;fillWeight=1;strokeColor=default;glass=1;shadow=1;" vertex="1" parent="UxCQeE6TKcD0Ho9k0yVD-1">
            <mxGeometry x="20" y="221" width="140" height="80" as="geometry" />
          </mxCell>
        </object>
        <object label="&lt;font style=&quot;font-size: 12px;&quot; face=&quot;Helvetica&quot;&gt;&lt;br&gt;&lt;div style=&quot;text-align: left;&quot;&gt;&amp;nbsp;FMG03&lt;/div&gt;&lt;div style=&quot;text-align: left;&quot;&gt;&lt;br&gt;&lt;/div&gt;Metodologia Ciêntifica&lt;br&gt;&lt;br&gt;&lt;div style=&quot;text-align: left; line-height: 120%;&quot;&gt;&amp;nbsp;60h&lt;span style=&quot;background-color: initial; white-space: pre;&quot;&gt;&#x9;&lt;/span&gt;&lt;span style=&quot;background-color: initial; white-space: pre;&quot;&gt;&#x9;&lt;span style=&quot;white-space: pre;font-size:5px&quot;&gt;&#x9;&lt;/span&gt;     &lt;span style=&quot;white-space: pre;&quot;&gt;&#x9;&lt;/span&gt;     &lt;/span&gt;FMG01&lt;/div&gt;&lt;div style=&quot;text-align: left;&quot;&gt;&lt;br&gt;&lt;/div&gt;&lt;/font&gt;" placeholders="1" id="zUUzP4G1sy1ztIb5Q9ei-39">
          <mxCell style="whiteSpace=wrap;html=1;strokeWidth=2;fillColor=#95D3FC;fontStyle=1;spacingTop=0;rounded=1;arcSize=9;points=[];fontFamily=Permanent Marker;hachureGap=8;fillWeight=1;strokeColor=default;glass=1;shadow=1;" vertex="1" parent="UxCQeE6TKcD0Ho9k0yVD-1">
            <mxGeometry x="20" y="321" width="140" height="80" as="geometry" />
          </mxCell>
        </object>
        <object label="&lt;font style=&quot;font-size: 12px;&quot; face=&quot;Helvetica&quot;&gt;&lt;br&gt;&lt;div style=&quot;text-align: left;&quot;&gt;&amp;nbsp;APQ23&lt;/div&gt;&lt;div style=&quot;text-align: left;&quot;&gt;&lt;br&gt;&lt;/div&gt;Quimica Geral&lt;br&gt;&lt;br&gt;&lt;div style=&quot;text-align: left; line-height: 120%;&quot;&gt;&amp;nbsp;60h&lt;span style=&quot;background-color: initial; white-space: pre;&quot;&gt;&#x9;&lt;/span&gt;&lt;span style=&quot;background-color: initial; white-space: pre;&quot;&gt;&#x9;&lt;span style=&quot;white-space: pre;font-size:5px&quot;&gt;&#x9;&lt;/span&gt;     &lt;span style=&quot;white-space: pre;&quot;&gt;&#x9;&lt;/span&gt;     &lt;/span&gt;&amp;nbsp; &amp;nbsp; &amp;nbsp; &amp;nbsp; &amp;nbsp; &amp;nbsp;&amp;nbsp;&lt;/div&gt;&lt;div style=&quot;text-align: left;&quot;&gt;&lt;br&gt;&lt;/div&gt;&lt;/font&gt;" placeholders="1" id="zUUzP4G1sy1ztIb5Q9ei-40">
          <mxCell style="whiteSpace=wrap;html=1;strokeWidth=2;fillColor=#95D3FC;fontStyle=1;spacingTop=0;rounded=1;arcSize=9;points=[];fontFamily=Permanent Marker;hachureGap=8;fillWeight=1;strokeColor=default;glass=1;shadow=1;" vertex="1" parent="UxCQeE6TKcD0Ho9k0yVD-1">
            <mxGeometry x="20" y="421" width="140" height="80" as="geometry" />
          </mxCell>
        </object>
        <object label="&lt;font style=&quot;font-size: 12px;&quot; face=&quot;Helvetica&quot;&gt;&lt;br&gt;&lt;div style=&quot;text-align: left;&quot;&gt;&amp;nbsp;APF39&lt;/div&gt;&lt;div style=&quot;text-align: left;&quot;&gt;&lt;br&gt;&lt;/div&gt;Física Experimental&amp;nbsp;&lt;br&gt;I&lt;br&gt;&lt;div style=&quot;text-align: left; line-height: 120%;&quot;&gt;&amp;nbsp;30h&lt;span style=&quot;background-color: initial; white-space: pre;&quot;&gt;&#x9;&lt;/span&gt;&lt;span style=&quot;background-color: initial; white-space: pre;&quot;&gt;&#x9;&lt;span style=&quot;white-space: pre;font-size:5px&quot;&gt;&#x9;&lt;/span&gt;     &lt;span style=&quot;white-space: pre;&quot;&gt;&#x9;&lt;/span&gt;     &lt;/span&gt;&lt;/div&gt;&lt;div style=&quot;text-align: left;&quot;&gt;&lt;br&gt;&lt;/div&gt;&lt;/font&gt;" placeholders="1" id="zUUzP4G1sy1ztIb5Q9ei-41">
          <mxCell style="whiteSpace=wrap;html=1;strokeWidth=2;fillColor=#95D3FC;fontStyle=1;spacingTop=0;rounded=1;arcSize=9;points=[];fontFamily=Permanent Marker;hachureGap=8;fillWeight=1;strokeColor=default;glass=1;shadow=1;" vertex="1" parent="UxCQeE6TKcD0Ho9k0yVD-1">
            <mxGeometry x="20" y="521" width="140" height="80" as="geometry" />
          </mxCell>
        </object>
        <object label="3º SEMESTRE" status="New" id="UxCQeE6TKcD0Ho9k0yVD-9">
          <mxCell style="swimlane;strokeWidth=2;fontFamily=Permanent Marker;html=0;startSize=1;verticalAlign=bottom;spacingBottom=5;points=[];childLayout=stackLayout;stackBorder=20;stackSpacing=20;resizeLast=0;resizeParent=1;horizontalStack=0;collapsible=0;sketch=1;strokeColor=none;fillStyle=solid;fillColor=#A0522D;fontStyle=1" parent="_5mSTuPxr-ZiKRkBDSY7-1" vertex="1">
            <mxGeometry x="360" y="28" width="180" height="739" as="geometry" />
          </mxCell>
        </object>
        <object label="&lt;font style=&quot;font-size: 12px;&quot; face=&quot;Helvetica&quot;&gt;&lt;br&gt;&lt;div style=&quot;text-align: left;&quot;&gt;&amp;nbsp;APF24&lt;/div&gt;&lt;div style=&quot;text-align: left;&quot;&gt;&lt;br&gt;&lt;/div&gt;Fundamentos da Física II&lt;br&gt;&lt;div style=&quot;text-align: left; line-height: 120%;&quot;&gt;&amp;nbsp;60h&lt;span style=&quot;background-color: initial; white-space: pre;&quot;&gt;&#x9;&lt;/span&gt;&lt;span style=&quot;background-color: initial; white-space: pre;&quot;&gt;&#x9;&lt;span style=&quot;white-space: pre;font-size:5px&quot;&gt;&#x9;&lt;/span&gt;     &lt;span style=&quot;white-space: pre;&quot;&gt;&#x9;&lt;/span&gt;     APF22&lt;/span&gt;&lt;/div&gt;&lt;div style=&quot;text-align: left;&quot;&gt;&lt;br&gt;&lt;/div&gt;&lt;/font&gt;" placeholders="1" id="zUUzP4G1sy1ztIb5Q9ei-44">
          <mxCell style="whiteSpace=wrap;html=1;strokeWidth=2;fillColor=#299AD4;fontStyle=1;spacingTop=0;rounded=1;arcSize=9;points=[];fontFamily=Permanent Marker;hachureGap=8;fillWeight=1;strokeColor=default;glass=1;shadow=1;" vertex="1" parent="UxCQeE6TKcD0Ho9k0yVD-9">
            <mxGeometry x="20" y="21" width="140" height="80" as="geometry" />
          </mxCell>
        </object>
        <object label="4º SEMESTRE" status="New" id="UxCQeE6TKcD0Ho9k0yVD-5">
          <mxCell style="swimlane;strokeWidth=2;fontFamily=Permanent Marker;html=0;startSize=1;verticalAlign=bottom;spacingBottom=5;points=[];childLayout=stackLayout;stackBorder=20;stackSpacing=20;resizeLast=0;resizeParent=1;horizontalStack=0;collapsible=0;sketch=1;strokeColor=none;fillStyle=solid;fillColor=#A0522D;" parent="_5mSTuPxr-ZiKRkBDSY7-1" vertex="1">
            <mxGeometry x="540" y="28" width="180" height="739" as="geometry" />
          </mxCell>
        </object>
        <object label="&lt;font style=&quot;font-size: 12px;&quot; face=&quot;Helvetica&quot;&gt;&lt;br&gt;&lt;div style=&quot;text-align: left;&quot;&gt;&amp;nbsp;APF24&lt;/div&gt;&lt;div style=&quot;text-align: left;&quot;&gt;&lt;br&gt;&lt;/div&gt;Fundamentos da Física II&lt;br&gt;&lt;div style=&quot;text-align: left; line-height: 120%;&quot;&gt;&amp;nbsp;60h&lt;span style=&quot;background-color: initial; white-space: pre;&quot;&gt;&#x9;&lt;/span&gt;&lt;span style=&quot;background-color: initial; white-space: pre;&quot;&gt;&#x9;&lt;span style=&quot;white-space: pre;font-size:5px&quot;&gt;&#x9;&lt;/span&gt;     &lt;span style=&quot;white-space: pre;&quot;&gt;&#x9;&lt;/span&gt;     APF22&lt;/span&gt;&lt;/div&gt;&lt;div style=&quot;text-align: left;&quot;&gt;&lt;br&gt;&lt;/div&gt;&lt;/font&gt;" placeholders="1" id="zUUzP4G1sy1ztIb5Q9ei-46">
          <mxCell style="whiteSpace=wrap;html=1;strokeWidth=2;fillColor=#03B09F;fontStyle=1;spacingTop=0;rounded=1;arcSize=9;points=[];fontFamily=Permanent Marker;hachureGap=8;fillWeight=1;strokeColor=default;glass=1;shadow=1;" vertex="1" parent="UxCQeE6TKcD0Ho9k0yVD-5">
            <mxGeometry x="20" y="21" width="140" height="80" as="geometry" />
          </mxCell>
        </object>
        <object label="5º SEMESTRE" status="New" id="zUUzP4G1sy1ztIb5Q9ei-34">
          <mxCell style="swimlane;strokeWidth=2;fontFamily=Permanent Marker;html=0;startSize=1;verticalAlign=bottom;spacingBottom=5;points=[];childLayout=stackLayout;stackBorder=20;stackSpacing=20;resizeLast=0;resizeParent=1;horizontalStack=0;collapsible=0;sketch=1;strokeColor=none;fillStyle=solid;fillColor=#A0522D;" vertex="1" parent="_5mSTuPxr-ZiKRkBDSY7-1">
            <mxGeometry x="720" y="28" width="180" height="739" as="geometry" />
          </mxCell>
        </object>
        <object label="&lt;font style=&quot;font-size: 12px;&quot; face=&quot;Helvetica&quot;&gt;&lt;br&gt;&lt;div style=&quot;text-align: left;&quot;&gt;&amp;nbsp;APF24&lt;/div&gt;&lt;div style=&quot;text-align: left;&quot;&gt;&lt;br&gt;&lt;/div&gt;Fundamentos da Física II&lt;br&gt;&lt;div style=&quot;text-align: left; line-height: 120%;&quot;&gt;&amp;nbsp;60h&lt;span style=&quot;background-color: initial; white-space: pre;&quot;&gt;&#x9;&lt;/span&gt;&lt;span style=&quot;background-color: initial; white-space: pre;&quot;&gt;&#x9;&lt;span style=&quot;white-space: pre;font-size:5px&quot;&gt;&#x9;&lt;/span&gt;     &lt;span style=&quot;white-space: pre;&quot;&gt;&#x9;&lt;/span&gt;     APF22&lt;/span&gt;&lt;/div&gt;&lt;div style=&quot;text-align: left;&quot;&gt;&lt;br&gt;&lt;/div&gt;&lt;/font&gt;" placeholders="1" id="zUUzP4G1sy1ztIb5Q9ei-47">
          <mxCell style="whiteSpace=wrap;html=1;strokeWidth=2;fillColor=#007500;fontStyle=1;spacingTop=0;rounded=1;arcSize=9;points=[];fontFamily=Permanent Marker;hachureGap=8;fillWeight=1;strokeColor=default;glass=1;shadow=1;" vertex="1" parent="zUUzP4G1sy1ztIb5Q9ei-34">
            <mxGeometry x="20" y="21" width="140" height="80" as="geometry" />
          </mxCell>
        </object>
        <object label="6º SEMESTRE" status="In progress" id="_5mSTuPxr-ZiKRkBDSY7-6">
          <mxCell style="swimlane;strokeWidth=2;fontFamily=Permanent Marker;html=0;startSize=1;verticalAlign=bottom;spacingBottom=5;points=[];childLayout=stackLayout;stackBorder=20;stackSpacing=20;resizeLast=0;resizeParent=1;horizontalStack=0;collapsible=0;sketch=1;strokeColor=none;fillStyle=solid;fillColor=#006600;" parent="_5mSTuPxr-ZiKRkBDSY7-1" vertex="1">
            <mxGeometry x="900" y="28" width="180" height="739" as="geometry" />
          </mxCell>
        </object>
        <object label="&lt;font style=&quot;font-size: 12px;&quot; face=&quot;Helvetica&quot;&gt;&lt;br&gt;&lt;div style=&quot;text-align: left;&quot;&gt;&amp;nbsp;APF24&lt;/div&gt;&lt;div style=&quot;text-align: left;&quot;&gt;&lt;br&gt;&lt;/div&gt;Fundamentos da Física II&lt;br&gt;&lt;div style=&quot;text-align: left; line-height: 120%;&quot;&gt;&amp;nbsp;60h&lt;span style=&quot;background-color: initial; white-space: pre;&quot;&gt;&#x9;&lt;/span&gt;&lt;span style=&quot;background-color: initial; white-space: pre;&quot;&gt;&#x9;&lt;span style=&quot;white-space: pre;font-size:5px&quot;&gt;&#x9;&lt;/span&gt;     &lt;span style=&quot;white-space: pre;&quot;&gt;&#x9;&lt;/span&gt;     APF22&lt;/span&gt;&lt;/div&gt;&lt;div style=&quot;text-align: left;&quot;&gt;&lt;br&gt;&lt;/div&gt;&lt;/font&gt;" placeholders="1" id="zUUzP4G1sy1ztIb5Q9ei-53">
          <mxCell style="whiteSpace=wrap;html=1;strokeWidth=2;fillColor=#657300;fontStyle=1;spacingTop=0;rounded=1;arcSize=9;points=[];fontFamily=Permanent Marker;hachureGap=8;fillWeight=1;strokeColor=default;glass=1;shadow=1;gradientColor=none;fillStyle=solid;" vertex="1" parent="_5mSTuPxr-ZiKRkBDSY7-6">
            <mxGeometry x="20" y="21" width="140" height="80" as="geometry" />
          </mxCell>
        </object>
        <mxCell id="zUUzP4G1sy1ztIb5Q9ei-6" value="" style="endArrow=classic;html=1;rounded=0;exitX=0.995;exitY=0.509;exitDx=0;exitDy=0;exitPerimeter=0;" edge="1" parent="_5mSTuPxr-ZiKRkBDSY7-1" source="_5mSTuPxr-ZiKRkBDSY7-3">
          <mxGeometry width="50" height="50" relative="1" as="geometry">
            <mxPoint x="220" y="170" as="sourcePoint" />
            <mxPoint x="200" y="89.77777777777783" as="targetPoint" />
            <Array as="points">
              <mxPoint x="180" y="90" />
            </Array>
          </mxGeometry>
        </mxCell>
        <mxCell id="zUUzP4G1sy1ztIb5Q9ei-9" value="" style="endArrow=classic;html=1;rounded=0;" edge="1" parent="_5mSTuPxr-ZiKRkBDSY7-1">
          <mxGeometry width="50" height="50" relative="1" as="geometry">
            <mxPoint x="160" y="190" as="sourcePoint" />
            <mxPoint x="200" y="189.77777777777783" as="targetPoint" />
            <Array as="points">
              <mxPoint x="180" y="190" />
            </Array>
          </mxGeometry>
        </mxCell>
        <mxCell id="zUUzP4G1sy1ztIb5Q9ei-43" value="" style="endArrow=classic;html=1;rounded=0;exitX=1.006;exitY=0.514;exitDx=0;exitDy=0;exitPerimeter=0;entryX=0;entryY=0.65;entryDx=0;entryDy=0;entryPerimeter=0;" edge="1" parent="_5mSTuPxr-ZiKRkBDSY7-1" source="zUUzP4G1sy1ztIb5Q9ei-25" target="zUUzP4G1sy1ztIb5Q9ei-39">
          <mxGeometry width="50" height="50" relative="1" as="geometry">
            <mxPoint x="406" y="465" as="sourcePoint" />
            <mxPoint x="456" y="415" as="targetPoint" />
            <Array as="points">
              <mxPoint x="182" y="690" />
              <mxPoint x="180" y="401" />
            </Array>
          </mxGeometry>
        </mxCell>
        <object label="7º SEMESTRE" status="Completed" id="_5mSTuPxr-ZiKRkBDSY7-9">
          <mxCell style="swimlane;strokeWidth=2;fontFamily=Permanent Marker;html=0;startSize=1;verticalAlign=bottom;spacingBottom=5;points=[];childLayout=stackLayout;stackBorder=20;stackSpacing=20;resizeLast=0;resizeParent=1;horizontalStack=0;collapsible=0;sketch=1;strokeColor=none;fillStyle=solid;fillColor=#1BA1E2;" parent="_5mSTuPxr-ZiKRkBDSY7-1" vertex="1">
            <mxGeometry x="1080" y="28" width="180" height="739" as="geometry" />
          </mxCell>
        </object>
        <object label="&lt;font style=&quot;font-size: 12px;&quot; face=&quot;Helvetica&quot;&gt;&lt;br&gt;&lt;div style=&quot;text-align: left;&quot;&gt;&amp;nbsp;APF24&lt;/div&gt;&lt;div style=&quot;text-align: left;&quot;&gt;&lt;br&gt;&lt;/div&gt;Fundamentos da Física II&lt;br&gt;&lt;div style=&quot;text-align: left; line-height: 120%;&quot;&gt;&amp;nbsp;60h&lt;span style=&quot;background-color: initial; white-space: pre;&quot;&gt;&#x9;&lt;/span&gt;&lt;span style=&quot;background-color: initial; white-space: pre;&quot;&gt;&#x9;&lt;span style=&quot;white-space: pre;font-size:5px&quot;&gt;&#x9;&lt;/span&gt;     &lt;span style=&quot;white-space: pre;&quot;&gt;&#x9;&lt;/span&gt;     APF22&lt;/span&gt;&lt;/div&gt;&lt;div style=&quot;text-align: left;&quot;&gt;&lt;br&gt;&lt;/div&gt;&lt;/font&gt;" placeholders="1" id="zUUzP4G1sy1ztIb5Q9ei-54">
          <mxCell style="whiteSpace=wrap;html=1;strokeWidth=2;fillColor=#8F5B00;fontStyle=1;spacingTop=0;rounded=1;arcSize=9;points=[];fontFamily=Permanent Marker;hachureGap=8;fillWeight=1;strokeColor=#C73500;glass=1;shadow=1;fontColor=#000000;fillStyle=solid;" vertex="1" parent="_5mSTuPxr-ZiKRkBDSY7-9">
            <mxGeometry x="20" y="21" width="140" height="80" as="geometry" />
          </mxCell>
        </object>
        <object label="8º SEMESTRE" status="Completed" id="zUUzP4G1sy1ztIb5Q9ei-56">
          <mxCell style="swimlane;strokeWidth=2;fontFamily=Permanent Marker;html=0;startSize=1;verticalAlign=bottom;spacingBottom=5;points=[];childLayout=stackLayout;stackBorder=20;stackSpacing=20;resizeLast=0;resizeParent=1;horizontalStack=0;collapsible=0;sketch=1;strokeColor=none;fillStyle=solid;fillColor=#1BA1E2;" vertex="1" parent="_5mSTuPxr-ZiKRkBDSY7-1">
            <mxGeometry x="1260" y="28" width="180" height="739" as="geometry" />
          </mxCell>
        </object>
        <object label="&lt;font style=&quot;font-size: 12px;&quot; face=&quot;Helvetica&quot;&gt;&lt;br&gt;&lt;div style=&quot;text-align: left;&quot;&gt;&amp;nbsp;APF24&lt;/div&gt;&lt;div style=&quot;text-align: left;&quot;&gt;&lt;br&gt;&lt;/div&gt;Fundamentos da Física II&lt;br&gt;&lt;div style=&quot;text-align: left; line-height: 120%;&quot;&gt;&amp;nbsp;60h&lt;span style=&quot;background-color: initial; white-space: pre;&quot;&gt;&#x9;&lt;/span&gt;&lt;span style=&quot;background-color: initial; white-space: pre;&quot;&gt;&#x9;&lt;span style=&quot;white-space: pre;font-size:5px&quot;&gt;&#x9;&lt;/span&gt;     &lt;span style=&quot;white-space: pre;&quot;&gt;&#x9;&lt;/span&gt;     APF22&lt;/span&gt;&lt;/div&gt;&lt;div style=&quot;text-align: left;&quot;&gt;&lt;br&gt;&lt;/div&gt;&lt;/font&gt;" placeholders="1" id="zUUzP4G1sy1ztIb5Q9ei-57">
          <mxCell style="whiteSpace=wrap;html=1;strokeWidth=2;fillColor=#FFCDC9;fontStyle=1;spacingTop=0;rounded=1;arcSize=9;points=[];fontFamily=Permanent Marker;hachureGap=8;fillWeight=1;strokeColor=#C73500;glass=1;shadow=1;fontColor=#000000;fillStyle=solid;" vertex="1" parent="zUUzP4G1sy1ztIb5Q9ei-56">
            <mxGeometry x="20" y="21" width="140" height="80" as="geometry" />
          </mxCell>
        </object>
      </root>
    </mxGraphModel>
  </diagram>
</mxfile>
